<svg width="1261" height="553" viewBox="0 0 1261 553" fill="none" xmlns="http://www.w3.org/2000/svg">
<mask id="mask0_215_2040" style="mask-type:luminance" maskUnits="userSpaceOnUse" x="0" y="0" width="1261" height="553">
<path d="M1260.5 0.88501H0.5V552.773H1260.5V0.88501Z" fill="white"/>
</mask>
<g mask="url(#mask0_215_2040)">
<path d="M1127.28 37.5992C1100.81 38.4088 1086.08 63.6579 1089.79 73.4836C1090.89 76.3833 1093.59 77.9398 1098.07 77.1279C1150.19 67.683 1176.25 114.383 1180.1 90.7701C1183.95 67.1585 1161.56 36.5502 1127.28 37.5992Z" fill="#FFB130"/>
<path d="M1133.12 333.725C1113.86 361.069 1082.42 381.788 1092.68 402.57C1137.51 382.437 1224.39 406.734 1221.71 388.127C1214.3 336.75 1244.42 285.643 1243.46 243.759C1242.89 219.353 1232.11 179.333 1209.44 170.531C1117.72 134.923 1097.01 211.681 1097.01 254.287C1097.01 264.889 1111.93 263.915 1133.12 266.322C1154.3 268.731 1157.19 299.542 1133.12 333.725Z" fill="#CCDCF6"/>
<path d="M1066.69 78.7615L1034.45 90.6899C1027.35 93.9146 1033.61 102.103 1047.02 100.04C1063.78 97.4608 1097.55 73.4205 1123.11 76.5049C1141.81 78.7615 1158.82 87.4664 1166.92 100.04" stroke="#1C4F4A" stroke-width="5.70136" stroke-linecap="round"/>
<path d="M1156.96 134.858C1156.55 126.462 1162.78 113.616 1166.92 100.04" stroke="#1C4F4A" stroke-width="5.70136" stroke-linecap="round"/>
<path d="M1076.36 74.2486C1085.39 57.913 1116.01 33.9491 1149.22 49.4237C1174.39 61.1525 1172.64 81.292 1166.92 100.04" stroke="#1C4F4A" stroke-width="5.70136" stroke-linecap="round"/>
<path d="M1076.25 75.3123C1078.88 78.6213 1082.55 86.9201 1076.25 103.355C1068.38 123.898 1079.48 125.268 1076.25 147.181C1074.51 159.037 1106.38 146.185 1109.81 159.538C1113.23 172.89 1085.84 211.579 1074.2 200.281C1062.56 188.983 1118.02 125.984 1178.63 165.359C1227.1 196.858 1223.98 208.475 1215.95 205.074C1215.95 205.074 1166.64 167.433 1178.63 190.372C1190.61 213.312 1208.41 278.207 1183.76 347.505" stroke="#1C4F4A" stroke-width="5.70136" stroke-linecap="round"/>
<path d="M1128.26 134.847C1138.59 134.031 1163.93 136.371 1182.63 152.248" stroke="#1C4F4A" stroke-width="5.70136" stroke-linecap="round"/>
<path d="M1104.6 107.386C1110.68 102.764 1120.48 90.2031 1111.13 76.936" stroke="#1C4F4A" stroke-width="5.70136" stroke-linecap="round"/>
<path d="M1123.64 76.9348C1126.71 81.6202 1132.31 93.0115 1133.68 105.646C1134.09 109.46 1137.06 112.675 1140.82 113.445C1146.81 114.673 1153.92 117.241 1158.16 121.795" stroke="#1C4F4A" stroke-width="5.70136" stroke-linecap="round" stroke-linejoin="round"/>
<path d="M1057.2 97.6592C1061.91 99.6535 1073.49 105.995 1073.49 115.085" stroke="#1C4F4A" stroke-width="5.70136" stroke-linecap="round" stroke-linejoin="round"/>
<path d="M1152.56 86.0492C1152.56 69.0888 1161.15 56.5344 1168.2 67.7672" stroke="#1C4F4A" stroke-width="5.70136" stroke-linecap="round" stroke-linejoin="round"/>
<path d="M1068.62 324.997C1076.16 325.536 1085.18 329.44 1090.43 337.117C1095.53 344.57 1097.3 346.409 1104.98 343.581C1112.65 340.753 1138.91 320.149 1138.91 274.904C1138.91 238.709 1146.45 220.773 1150.22 216.33" stroke="#1C4F4A" stroke-width="5.70136" stroke-linecap="round" stroke-linejoin="round"/>
<path d="M976.706 219.441C1000.88 228.273 986.002 260.347 1045.04 276.152C1104.07 291.956 1098.96 312.873 1085.94 307.759C1072.93 302.646 1072 288.238 1076.65 263.136C1080.36 243.054 1075.1 219.751 1072 210.609" stroke="#1C4F4A" stroke-width="5.70136" stroke-linecap="round" stroke-linejoin="round"/>
<path d="M1074.66 276.994C1089.9 275.372 1123.84 274.722 1137.69 285.11" stroke="#1C4F4A" stroke-width="5.70136" stroke-linecap="round" stroke-linejoin="round"/>
<path d="M931.268 205.421C931.268 205.421 931 236.662 945.004 244.202C959.009 251.743 993.319 273.368 1018.53 299.545C1050.04 332.266 1068.62 334.69 1075.08 341.154C1081.55 347.617 1079.12 375.895 1070.64 396.902C1063.85 413.707 1066.46 435.144 1068.62 443.762" stroke="#1C4F4A" stroke-width="5.70136" stroke-linecap="round" stroke-linejoin="round"/>
<path d="M988.828 272.929C996.698 263.261 1016.35 246.622 1032 257.415" stroke="#1C4F4A" stroke-width="5.70136" stroke-linecap="round" stroke-linejoin="round"/>
<path d="M959.485 229.758L905.186 176.469L939.25 186.924L975.675 220.652L959.485 229.758Z" stroke="#1C4F4A" stroke-width="5.70136" stroke-linecap="round" stroke-linejoin="round"/>
<path d="M821.081 413.553C1214.18 367.155 715.482 523.299 884.859 547.777C1010.6 565.949 1195.98 387.324 1241.29 413.553C1268.68 429.412 1258.44 453.34 1232.39 437.488C1206.35 421.636 1217.12 339.435 1227.32 294.143C1235.47 257.909 1230.72 229.602 1227.32 219.977" stroke="#1C4F4A" stroke-width="5.70136" stroke-linecap="round" stroke-linejoin="round"/>
<path d="M534.05 420.715C544.663 409.641 717.446 419.222 731.526 417.417C748.24 415.274 766.452 460.823 716.091 455.135C675.761 450.579 550.614 475.62 537.66 459.705C531.757 452.453 526.697 428.389 534.05 420.715Z" fill="#CCDCF6"/>
<path d="M660.987 330.849H683.304C684.087 330.849 684.721 331.484 684.721 332.267V348.117C684.721 348.901 684.087 349.536 683.304 349.536H660.987C660.204 349.536 659.569 348.901 659.569 348.117V332.267C659.569 331.484 660.204 330.849 660.987 330.849Z" fill="#FFB130"/>
<path d="M660.988 359.449H708.457C709.24 359.449 709.877 360.084 709.877 360.867V373.258C709.877 374.042 709.24 374.676 708.457 374.676H660.988C660.204 374.676 659.568 374.042 659.568 373.258V360.867C659.568 360.084 660.204 359.449 660.988 359.449Z" fill="#86BFBA"/>
<path d="M762.779 330.849H785.096C785.879 330.849 786.513 331.484 786.513 332.267V339.38C786.513 340.164 785.879 340.799 785.096 340.799H762.779C761.996 340.799 761.361 340.164 761.361 339.38V332.267C761.361 331.484 761.996 330.849 762.779 330.849Z" fill="#FC6719"/>
<path d="M607.184 311.114H629.5C630.283 311.114 630.917 311.749 630.917 312.533V319.646C630.917 320.429 630.283 321.064 629.5 321.064H607.184C606.4 321.064 605.765 320.429 605.765 319.646V312.533C605.765 311.749 606.4 311.114 607.184 311.114Z" fill="#FC6719"/>
<path d="M607.184 273.836H629.5C630.283 273.836 630.917 274.471 630.917 275.254V296.55C630.917 297.334 630.283 297.968 629.5 297.968H607.184C606.4 297.968 605.765 297.334 605.765 296.55V275.254C605.765 274.471 606.4 273.836 607.184 273.836Z" fill="#CCDCF6"/>
<path d="M720.833 315.46H743.149C743.932 315.46 744.566 316.095 744.566 316.878V319.647C744.566 320.43 743.932 321.066 743.149 321.066H720.833C720.049 321.066 719.414 320.43 719.414 319.647V316.878C719.414 316.095 720.049 315.46 720.833 315.46Z" fill="#CCDCF6"/>
<path d="M720.833 330.849H743.149C743.932 330.849 744.566 331.484 744.566 332.267V363.636C744.566 364.42 743.932 365.055 743.149 365.055H720.833C720.049 365.055 719.414 364.42 719.414 363.636V332.267C719.414 331.484 720.049 330.849 720.833 330.849Z" fill="#CCDCF6"/>
<path d="M572.338 275.376C571.196 276.458 571.147 278.263 572.23 279.406C573.312 280.548 575.117 280.598 576.26 279.514L572.338 275.376ZM576.26 261.264C575.117 260.181 573.312 260.23 572.23 261.373C571.147 262.516 571.196 264.32 572.338 265.403L576.26 261.264ZM581.747 270.39L583.708 272.458C584.276 271.92 584.597 271.172 584.597 270.39C584.597 269.606 584.276 268.858 583.708 268.32L581.747 270.39ZM576.26 279.514L583.708 272.458L579.786 268.32L572.338 275.376L576.26 279.514ZM583.708 268.32L576.26 261.264L572.338 265.403L579.786 272.458L583.708 268.32Z" fill="#FC6719"/>
<path d="M532.358 265.402C533.501 264.32 533.55 262.515 532.467 261.373C531.384 260.23 529.579 260.181 528.437 261.264L532.358 265.402ZM528.437 279.515C529.579 280.599 531.384 280.55 532.467 279.407C533.55 278.263 533.501 276.459 532.358 275.376L528.437 279.515ZM522.95 270.389L520.989 268.32C520.421 268.858 520.099 269.606 520.099 270.389C520.099 271.172 520.421 271.92 520.989 272.458L522.95 270.389ZM528.437 261.264L520.989 268.32L524.91 272.458L532.358 265.402L528.437 261.264ZM520.989 272.458L528.437 279.515L532.358 275.376L524.91 268.32L520.989 272.458Z" fill="#FC6719"/>
<path d="M535.595 307.019C537.122 307.019 538.359 308.256 538.359 309.783C538.359 311.309 537.122 312.547 535.595 312.547C534.068 312.547 532.831 311.309 532.831 309.783C532.831 308.256 534.068 307.019 535.595 307.019Z" fill="#1C4F4A"/>
<path d="M554.532 307.019C556.058 307.019 557.296 308.256 557.296 309.783C557.296 311.309 556.058 312.547 554.532 312.547C553.005 312.547 551.768 311.309 551.768 309.783C551.768 308.256 553.005 307.019 554.532 307.019Z" fill="#1C4F4A"/>
<path d="M573.473 307.019C575 307.019 576.237 308.256 576.237 309.783C576.237 311.309 575 312.547 573.473 312.547C571.946 312.547 570.709 311.309 570.709 309.783C570.709 308.256 571.946 307.019 573.473 307.019Z" fill="#1C4F4A"/>
<path d="M529.44 316.138C528.262 316.138 527.308 317.093 527.308 318.27V330.581C527.308 331.759 528.262 332.713 529.44 332.713H541.751C542.928 332.713 543.883 331.759 543.883 330.581V318.27C543.883 317.093 542.928 316.138 541.751 316.138H529.44ZM535.595 327.189C537.121 327.189 538.359 325.951 538.359 324.425C538.359 322.898 537.121 321.662 535.595 321.662C534.068 321.662 532.831 322.898 532.831 324.425C532.831 325.951 534.068 327.189 535.595 327.189Z" fill="#FC6719"/>
<path d="M554.532 321.662C556.058 321.662 557.296 322.899 557.296 324.426C557.296 325.952 556.058 327.19 554.532 327.19C553.005 327.19 551.768 325.952 551.768 324.426C551.768 322.899 553.005 321.662 554.532 321.662Z" fill="#1C4F4A"/>
<path d="M573.473 321.662C575 321.662 576.237 322.899 576.237 324.426C576.237 325.952 575 327.19 573.473 327.19C571.946 327.19 570.709 325.952 570.709 324.426C570.709 322.899 571.946 321.662 573.473 321.662Z" fill="#1C4F4A"/>
<path d="M535.595 336.307C537.122 336.307 538.359 337.545 538.359 339.071C538.359 340.598 537.122 341.835 535.595 341.835C534.068 341.835 532.831 340.598 532.831 339.071C532.831 337.545 534.068 336.307 535.595 336.307Z" fill="#1C4F4A"/>
<path d="M554.532 336.307C556.058 336.307 557.296 337.545 557.296 339.071C557.296 340.598 556.058 341.835 554.532 341.835C553.005 341.835 551.768 340.598 551.768 339.071C551.768 337.545 553.005 336.307 554.532 336.307Z" fill="#1C4F4A"/>
<path d="M589.961 355.575V298.353C589.961 293.054 585.666 288.759 580.368 288.759H525.919C520.621 288.759 516.326 293.054 516.326 298.353V345.982C516.326 351.281 520.612 355.575 525.91 355.575H568.503C575.142 355.575 578.079 350.345 575.233 338.553C625.092 373.896 664.615 266.705 726.201 266.705C736.799 266.705 712.102 282.681 728.798 282.681C751.059 282.681 877.398 258.892 930.778 216.187" stroke="#1C4F4A" stroke-width="5.70136" stroke-linecap="round" stroke-linejoin="round"/>
<path d="M495.836 451.836V244.745C495.836 240.166 499.459 236.454 504.038 236.454H743.503" stroke="#1C4F4A" stroke-width="5.70136" stroke-linecap="round" stroke-linejoin="round"/>
<path d="M3.9209 409.531C62.4009 401.423 153.819 400.712 265.964 433.465C340.026 455.096 462.316 472.054 495.808 451.788" stroke="#1C4F4A" stroke-width="5.70136" stroke-linecap="round" stroke-linejoin="round"/>
<path d="M703.141 463.675C703.141 480.029 713.987 490.794 719.412 494.131H653.949" stroke="#1C4F4A" stroke-width="5.70136" stroke-linecap="round" stroke-linejoin="round"/>
<path d="M622.035 463.675C622.035 480.029 611.187 490.794 605.764 494.131H671.227" stroke="#1C4F4A" stroke-width="5.70136" stroke-linecap="round" stroke-linejoin="round"/>
<path d="M575.502 453.663H811.612C816.191 453.663 819.904 449.95 819.904 445.371V348.204" stroke="#1C4F4A" stroke-width="5.70136" stroke-linecap="round" stroke-linejoin="round"/>
<path d="M717.457 408.581H519.132C517.097 408.581 515.447 406.931 515.447 404.895V254.868C515.447 252.833 517.097 251.183 519.132 251.183H744.616" stroke="#1C4F4A" stroke-width="5.70136" stroke-linecap="round" stroke-linejoin="round"/>
<path d="M589.953 374.677V403.327" stroke="#1C4F4A" stroke-width="5.70136" stroke-linecap="round"/>
<path d="M589.953 280.445V251.794" stroke="#1C4F4A" stroke-width="5.70136" stroke-linecap="round"/>
<path d="M839.39 0.88501H937.793C940.295 0.88501 942.323 2.91469 942.323 5.41645V26.2275C942.323 28.7293 940.295 30.7578 937.793 30.7578H839.39C836.888 30.7578 834.859 28.7293 834.859 26.2275V5.41645C834.859 2.91469 836.888 0.88501 839.39 0.88501Z" fill="#FFB130"/>
<path d="M825.989 79.8062C827.866 79.8062 829.387 81.3273 829.387 83.2042C829.387 85.081 827.866 86.6022 825.989 86.6022C824.112 86.6022 822.591 85.081 822.591 83.2042C822.591 81.3273 824.112 79.8062 825.989 79.8062Z" fill="#1C4F4A"/>
<path d="M852.821 79.8062C854.698 79.8062 856.219 81.3273 856.219 83.2042C856.219 85.081 854.698 86.6022 852.821 86.6022C850.944 86.6022 849.423 85.081 849.423 83.2042C849.423 81.3273 850.944 79.8062 852.821 79.8062Z" fill="#1C4F4A"/>
<path d="M879.655 79.8062C881.532 79.8062 883.053 81.3273 883.053 83.2042C883.053 85.081 881.532 86.6022 879.655 86.6022C877.778 86.6022 876.257 85.081 876.257 83.2042C876.257 81.3273 877.778 79.8062 879.655 79.8062Z" fill="#1C4F4A"/>
<path d="M816.89 91.8347C815.222 91.8347 813.87 93.1859 813.87 94.8542V112.297C813.87 113.965 815.222 115.317 816.89 115.317H834.332C836 115.317 837.352 113.965 837.352 112.297V94.8542C837.352 93.1859 836 91.8347 834.332 91.8347H816.89ZM825.99 107.352C827.866 107.352 829.388 105.83 829.388 103.954C829.388 102.077 827.866 100.556 825.99 100.556C824.113 100.556 822.592 102.077 822.592 103.954C822.592 105.83 824.113 107.352 825.99 107.352Z" fill="#FC6719"/>
<path d="M852.821 100.553C854.698 100.553 856.219 102.074 856.219 103.951C856.219 105.828 854.698 107.349 852.821 107.349C850.944 107.349 849.423 105.828 849.423 103.951C849.423 102.074 850.944 100.553 852.821 100.553Z" fill="#1C4F4A"/>
<path d="M879.655 100.553C881.532 100.553 883.053 102.074 883.053 103.951C883.053 105.828 881.532 107.349 879.655 107.349C877.778 107.349 876.257 105.828 876.257 103.951C876.257 102.074 877.778 100.553 879.655 100.553Z" fill="#1C4F4A"/>
<path d="M825.989 121.302C827.866 121.302 829.387 122.823 829.387 124.7C829.387 126.576 827.866 128.098 825.989 128.098C824.112 128.098 822.591 126.576 822.591 124.7C822.591 122.823 824.112 121.302 825.989 121.302Z" fill="#1C4F4A"/>
<path d="M852.821 121.302C854.698 121.302 856.219 122.823 856.219 124.7C856.219 126.576 854.698 128.098 852.821 128.098C850.944 128.098 849.423 126.576 849.423 124.7C849.423 122.823 850.944 121.302 852.821 121.302Z" fill="#1C4F4A"/>
<path d="M786.448 61.8834C787.592 60.8001 787.64 58.9962 786.558 57.8537C785.475 56.7111 783.671 56.6621 782.527 57.7442L786.448 61.8834ZM782.527 81.8769C783.671 82.959 785.475 82.9111 786.558 81.7674C787.64 80.6249 787.592 78.821 786.448 77.7377L782.527 81.8769ZM773.936 69.8106L771.976 67.741C771.407 68.2792 771.085 69.0283 771.085 69.8106C771.085 70.5939 771.407 71.3419 771.976 71.8801L773.936 69.8106ZM782.527 57.7442L771.976 67.741L775.896 71.8801L786.448 61.8834L782.527 57.7442ZM771.976 71.8801L782.527 81.8769L786.448 77.7377L775.896 67.741L771.976 71.8801Z" fill="#FC6719"/>
<path d="M903.534 147.707V66.634C903.534 59.1275 897.449 53.0408 889.943 53.0408H812.8C805.295 53.0408 799.209 59.1275 799.209 66.634V134.116C799.209 141.623 805.281 147.707 812.787 147.707H873.133C882.54 147.707 886.223 140.917 882.848 136.03C879.473 131.141 869.363 131.32 863.892 137.554C858.421 143.788 861.28 157.84 879.584 161.101C902.466 165.176 940.706 153.349 955.706 168.557C965.219 178.202 957.649 194.754 953.874 197.848" stroke="#1C4F4A" stroke-width="5.70136" stroke-linecap="round" stroke-linejoin="round"/>
<path d="M868.393 52.8906V13.8214C868.393 10.485 871.097 7.78027 874.433 7.78027H947.371C950.708 7.78027 953.411 10.485 953.411 13.8214V97.5356C953.411 100.872 950.708 103.577 947.371 103.577H903.555" stroke="#1C4F4A" stroke-width="5.70136"/>
<path d="M891.905 22.4292H929.659" stroke="#1C4F4A" stroke-width="5.70136" stroke-linecap="round"/>
<path d="M904.23 69.8105H953.133" stroke="#1C4F4A" stroke-width="5.70136" stroke-linecap="round"/>
<path d="M868.432 37.304H953.134" stroke="#1C4F4A" stroke-width="5.70136" stroke-linecap="round"/>
</g>
</svg>
