<svg width="101" height="96" viewBox="0 0 101 96" fill="none" xmlns="http://www.w3.org/2000/svg">
<path d="M99 65.8141V9.65769C99 7.62675 98.1932 5.67898 96.7571 4.24289C95.321 2.80679 93.3733 2 91.3423 2H9.65769C7.62675 2 5.67898 2.80679 4.24289 4.24289C2.80679 5.67898 2 7.62675 2 9.65769V65.8141C2 67.8451 2.80679 69.7928 4.24289 71.2289C5.67898 72.665 7.62675 73.4718 9.65769 73.4718H91.3398C93.3707 73.4718 95.3185 72.665 96.7546 71.2289C98.1907 69.7928 98.9974 67.8451 98.9974 65.8141H99Z" stroke="#F5F3EE" stroke-width="4" stroke-linecap="round"/>
<path d="M28.8044 30.0527H10.9364C10.2316 30.0527 9.66016 30.6241 9.66016 31.329V44.0918C9.66016 44.7967 10.2316 45.3681 10.9364 45.3681H28.8044C29.5093 45.3681 30.0807 44.7967 30.0807 44.0918V31.329C30.0807 30.6241 29.5093 30.0527 28.8044 30.0527Z" fill="#FFB130"/>
<path d="M59.4352 24.9731H41.5673C40.8624 24.9731 40.291 25.5446 40.291 26.2494V33.9071C40.291 34.612 40.8624 35.1834 41.5673 35.1834H59.4352C60.1401 35.1834 60.7115 34.612 60.7115 33.9071V26.2494C60.7115 25.5446 60.1401 24.9731 59.4352 24.9731Z" fill="#CCDCF6"/>
<path d="M90.0661 50.4985H72.1982C71.4933 50.4985 70.9219 51.0699 70.9219 51.7748V54.3274C70.9219 55.0323 71.4933 55.6037 72.1982 55.6037H90.0661C90.771 55.6037 91.3424 55.0323 91.3424 54.3274V51.7748C91.3424 51.0699 90.771 50.4985 90.0661 50.4985Z" fill="#FFB130"/>
<path d="M90.0661 12.2104H72.1982C71.4933 12.2104 70.9219 12.7819 70.9219 13.4867V18.5919C70.9219 19.2967 71.4933 19.8681 72.1982 19.8681H90.0661C90.771 19.8681 91.3424 19.2967 91.3424 18.5919V13.4867C91.3424 12.7819 90.771 12.2104 90.0661 12.2104Z" fill="#FC6719"/>
<path d="M59.4352 55.604H41.5673C40.8624 55.604 40.291 56.1754 40.291 56.8803V59.4584C40.291 60.1632 40.8624 60.7347 41.5673 60.7347H59.4352C60.1401 60.7347 60.7115 60.1632 60.7115 59.4584V56.8803C60.7115 56.1754 60.1401 55.604 59.4352 55.604Z" fill="#CCDCF6"/>
<path d="M19.8706 93.7866C43.9349 87.1193 56.9249 87.1206 81.1322 93.7866" stroke="#F5F3EE" stroke-width="4" stroke-linecap="round"/>
</svg>
