<svg width="419" height="70" viewBox="0 0 419 70" fill="none" xmlns="http://www.w3.org/2000/svg">
<path d="M72.2414 11.6277C72.2414 5.20593 66.8511 0 60.2013 0H12.0402C5.39061 0 0 5.20593 0 11.6277V58.1387C0 64.5607 5.39061 69.7663 12.0402 69.7663H38.613V42.7863H29.2096V32.2243H38.613V24.4531C38.613 15.4455 44.3161 10.5347 52.6398 10.5347C55.4452 10.527 58.2468 10.6665 61.036 10.9417V20.3601H55.3047C50.7698 20.3601 49.8866 22.4299 49.8866 25.4841V32.2088H60.7228L59.3141 42.7706H49.8223V69.7663H60.2013C66.8511 69.7663 72.2414 64.5607 72.2414 58.1387V11.6277Z" fill="#1C4F4A"/>
<path d="M135.653 0C124.57 0 115.586 8.67652 115.586 19.3795V50.3866C115.586 61.0898 124.57 69.7663 135.653 69.7663H167.76C178.843 69.7663 187.827 61.0898 187.827 50.3866V19.3795C187.827 8.67652 178.843 0 167.76 0H135.653ZM175.787 7.75181C178.002 7.75181 179.801 9.48822 179.801 11.6277C179.801 13.7672 178.002 15.5036 175.787 15.5036C173.572 15.5036 171.774 13.7672 171.774 11.6277C171.774 9.48822 173.572 7.75181 175.787 7.75181ZM151.707 15.5036C162.788 15.5036 171.774 24.1818 171.774 34.8832C171.774 45.5846 162.788 54.2629 151.707 54.2629C140.626 54.2629 131.64 45.5846 131.64 34.8832C131.64 24.1818 140.626 15.5036 151.707 15.5036ZM151.707 23.2555C148.513 23.2555 145.451 24.4805 143.193 26.6611C140.935 28.8417 139.666 31.7993 139.666 34.8832C139.666 37.9672 140.935 40.9246 143.193 43.1051C145.451 45.2857 148.513 46.5108 151.707 46.5108C154.9 46.5108 157.962 45.2857 160.22 43.1051C162.478 40.9246 163.747 37.9672 163.747 34.8832C163.747 31.7993 162.478 28.8417 160.22 26.6611C157.962 24.4805 154.9 23.2555 151.707 23.2555Z" fill="#1C4F4A"/>
<path d="M303.414 11.6277C303.414 5.20593 298.023 0 291.374 0H243.213C236.563 0 231.172 5.20593 231.172 11.6277V58.1387C231.172 64.5607 236.563 69.7663 243.213 69.7663H291.374C298.023 69.7663 303.414 64.5607 303.414 58.1387V11.6277ZM255.253 54.2629H245.127V27.1314H255.253V54.2629ZM250.011 22.1586C246.917 22.1586 244.85 20.1663 244.85 17.5075C244.85 14.8486 246.913 12.8564 250.352 12.8564C253.447 12.8564 255.514 14.8486 255.514 17.5075C255.514 20.1663 253.451 22.1586 250.011 22.1586ZM291.374 54.2629H281.573V39.4333C281.573 35.3328 278.96 34.3871 277.981 34.3871C277.002 34.3871 273.734 35.0189 273.734 39.4333C273.734 40.0654 273.734 54.2629 273.734 54.2629H263.609V27.1314H273.734V30.9181C275.039 28.7088 277.652 27.1314 282.552 27.1314C287.452 27.1314 291.374 30.9181 291.374 39.4333V54.2629Z" fill="#1C4F4A"/>
<path fill-rule="evenodd" clip-rule="evenodd" d="M357.595 0C351.61 0 346.759 4.68533 346.759 10.4649V59.3014C346.759 65.0812 351.61 69.7663 357.595 69.7663H408.164C414.149 69.7663 419 65.0812 419 59.3014V10.4649C419 4.68533 414.149 0 408.164 0H357.595ZM402.722 21.6622C404.885 21.4217 406.939 20.8952 408.863 20.1223L408.965 20.162C407.53 22.1251 405.707 23.8558 403.617 25.2247C403.65 25.6419 403.65 26.0611 403.65 26.4764C403.65 39.3714 392.9 54.2656 373.218 54.2656C367.156 54.2656 361.549 52.6464 356.791 49.8766C357.641 49.9638 358.486 50.0095 359.334 50.0095C364.319 50.0095 368.947 48.4478 372.599 45.8271C367.906 45.7479 363.962 42.9185 362.591 39.0377C363.245 39.149 363.899 39.2087 364.582 39.2087C365.553 39.2087 366.501 39.0894 367.399 38.8689C362.501 37.9689 358.821 34.0169 358.821 29.2781V29.1569C360.26 29.8881 361.91 30.3292 363.664 30.3808C360.799 28.6264 358.908 25.64 358.908 22.2423C358.908 20.4263 359.428 18.7593 360.356 17.3247C365.63 23.2239 373.51 27.1262 382.401 27.5097C382.223 26.7964 382.125 26.0513 382.125 25.2764C382.125 19.8839 386.914 15.5066 392.82 15.5066C395.902 15.5066 398.678 16.6988 400.626 18.6043C403.065 18.1572 405.357 17.3545 407.424 16.2517C406.622 18.5347 404.926 20.4482 402.722 21.6622Z" fill="#1C4F4A"/>
</svg>
