<svg width="92" height="91" viewBox="0 0 92 91" fill="none" xmlns="http://www.w3.org/2000/svg">
<path d="M46 21.8203V45.5798L57.969 57.5478" stroke="#FC6719" stroke-width="3.76" stroke-linecap="round" stroke-linejoin="round"/>
<path d="M45.9998 81.2999C65.7276 81.2999 81.7198 65.3076 81.7198 45.5799C81.7198 25.8521 65.7276 9.85986 45.9998 9.85986C26.272 9.85986 10.2798 25.8521 10.2798 45.5799" stroke="#F5F3EE" stroke-width="3.76" stroke-miterlimit="10" stroke-linecap="round"/>
<path d="M11.5303 54.98C14.84 67.153 24.4271 76.7391 36.6001 80.0498" stroke="#1C4F4A" stroke-width="3.76" stroke-miterlimit="10" stroke-linecap="round"/>
<path d="M32.8401 62.5C34.9167 62.5 36.6001 60.8166 36.6001 58.74C36.6001 56.6634 34.9167 54.98 32.8401 54.98C30.7635 54.98 29.0801 56.6634 29.0801 58.74C29.0801 60.8166 30.7635 62.5 32.8401 62.5Z" fill="#F5F3EE"/>
</svg>
